<?xml version="1.0" encoding="UTF-8" standalone="no"?>
<!-- Created with Inkscape (http://www.inkscape.org/) -->

<svg
   width="32"
   height="32"
   viewBox="0 0 32 32"
   version="1.1"
   id="svg1"
   xml:space="preserve"
   xmlns="http://www.w3.org/2000/svg"
   xmlns:svg="http://www.w3.org/2000/svg"><defs
     id="defs1" /><g
     id="layer1"><path
       style="fill:#000000;stroke-width:1.67027"
       d="m 13.548411,31.102279 c -1.392165,-0.839139 -1.767592,-2.443601 -0.906917,-3.875882 1.191301,-1.982486 3.464469,-2.274585 5.314114,-0.682858 0.6461,0.556004 1.174726,1.491105 1.174726,2.077998 0,1.326207 -1.975153,3.088918 -3.461193,3.088918 -0.611458,0 -1.565786,-0.273679 -2.12073,-0.608176 z m 3.428261,-2.480742 c 0,-1.097023 -0.160253,-1.235566 -1.429219,-1.235566 -0.998243,0 -1.479483,0.224593 -1.5959,0.744804 -0.298957,1.335903 0.307031,1.995379 1.706272,1.856875 1.112614,-0.110123 1.318847,-0.323756 1.318847,-1.366113 z m 9.060101,2.139222 c -0.840715,-0.622316 -1.282991,-1.359752 -1.282991,-2.139222 0,-1.318398 1.967131,-3.088916 3.431934,-3.088916 0.476275,0 1.433412,0.384121 2.126973,0.853603 1.648455,1.115864 1.684903,2.93762 0.0863,4.313312 -1.467592,1.262948 -2.71509,1.280457 -4.362212,0.06122 z m 3.603511,-1.295746 c 0.948338,-0.983341 0.15211,-2.284969 -1.397762,-2.284969 -1.467305,0 -2.13963,0.851064 -1.672622,2.117297 0.339629,0.920865 2.243721,1.024845 3.070384,0.167672 z M 12.101654,23.081987 C 11.262972,22.641913 10.318505,21.866559 10.00284,21.358978 9.5048652,20.558253 8.0582801,16.355844 6.2360687,10.416304 L 5.7050063,8.6852939 2.7261944,8.5629491 C 0.46060604,8.4698968 -0.25261784,8.2926923 -0.25261784,7.8228254 c 0,-0.5107787 1.05596341,-0.6377418 6.09649994,-0.7330171 l 6.0965009,-0.1152332 0.269686,-1.120333 c 0.771915,-3.2067045 3.306151,-5.33529122 6.814064,-5.72335737 3.630686,-0.40164645 7.479553,2.10528297 8.064393,5.25268007 0.29615,1.5937687 0.32841,1.6155492 2.392691,1.6155492 h 2.092492 v 8.443041 8.443038 l -8.973588,-0.0015 c -8.041215,-0.0014 -9.132027,-0.08467 -10.498467,-0.801672 z M 30.02986,15.545123 30.161073,8.6465416 h -1.609821 c -1.23425,0 -1.731762,0.2303118 -2.132499,0.987194 -0.287474,0.5429564 -1.32891,1.5159644 -2.314303,2.1622424 -1.487488,0.975579 -2.244539,1.171964 -4.459703,1.156878 -3.083398,-0.02099 -4.777794,-0.804435 -6.288122,-2.907435 C 12.417311,8.7375093 12.185854,8.6465416 9.7973392,8.6465416 H 7.2426981 L 7.7209496,10.191 c 2.9702364,9.592057 3.8194914,11.328431 5.9055754,12.074445 0.526451,0.188268 4.403042,0.305394 8.614646,0.260282 l 7.657462,-0.08202 z"
       id="path1" /></g></svg>
