<?xml version="1.0" encoding="UTF-8" standalone="no"?>
<!-- Created with Inkscape (http://www.inkscape.org/) -->

<svg
   width="32"
   height="32"
   viewBox="0 0 32 32"
   version="1.1"
   id="svg1"
   xml:space="preserve"
   xmlns:inkscape="http://www.inkscape.org/namespaces/inkscape"
   xmlns:sodipodi="http://sodipodi.sourceforge.net/DTD/sodipodi-0.dtd"
   xmlns="http://www.w3.org/2000/svg"
   xmlns:svg="http://www.w3.org/2000/svg"><sodipodi:namedview
     id="namedview1"
     pagecolor="#505050"
     bordercolor="#eeeeee"
     borderopacity="1"
     inkscape:showpageshadow="0"
     inkscape:pageopacity="0"
     inkscape:pagecheckerboard="0"
     inkscape:deskcolor="#505050"
     inkscape:document-units="px" /><defs
     id="defs1" /><g
     inkscape:label="Layer 1"
     inkscape:groupmode="layer"
     id="layer1"><path
       style="fill:#000000;stroke-width:2.60764"
       d="M 10.213386,26.701624 C 0.23941582,17.83056 -2.4698989,8.5670669 3.082584,2.320501 c 2.2788899,-2.56376044 9.238829,-2.87767525 11.342033,-0.5115608 1.147265,1.2906778 1.802845,1.2906778 2.950109,0 2.337226,-2.62939043 9.293553,-1.99054222 12.046287,1.1062955 5.07788,5.7126358 1.935382,15.1415503 -8.144712,24.4378183 l -5.071678,4.677308 z M 21.42336,24.430876 C 28.153086,18.227033 30.821024,12.176368 29.172532,6.8563752 27.623135,1.8561746 23.156224,0.39570201 18.933237,3.5085986 16.134391,5.5717135 15.580477,5.5862824 13.137227,3.6610412 7.5093174,-0.77365827 2.378331,2.5822017 2.378331,10.697768 c 0,3.996705 1.0817409,5.986052 6.3379357,11.655614 3.4858653,3.760005 6.6094833,6.836373 6.9413753,6.836373 0.331891,0 2.926464,-2.141497 5.765718,-4.758879 z"
       id="path1" /></g></svg>
