<?xml version="1.0" encoding="UTF-8" standalone="no"?>
<!-- Created with Inkscape (http://www.inkscape.org/) -->

<svg
   width="32"
   height="32"
   viewBox="0 0 32 32"
   version="1.1"
   id="svg1"
   xml:space="preserve"
   inkscape:export-filename="icon1.svg"
   inkscape:export-xdpi="96"
   inkscape:export-ydpi="96"
   sodipodi:docname="shopbyicon3.svg"
   xmlns:inkscape="http://www.inkscape.org/namespaces/inkscape"
   xmlns:sodipodi="http://sodipodi.sourceforge.net/DTD/sodipodi-0.dtd"
   xmlns="http://www.w3.org/2000/svg"
   xmlns:svg="http://www.w3.org/2000/svg"><sodipodi:namedview
     id="namedview1"
     pagecolor="#505050"
     bordercolor="#eeeeee"
     borderopacity="1"
     inkscape:showpageshadow="0"
     inkscape:pageopacity="0"
     inkscape:pagecheckerboard="0"
     inkscape:deskcolor="#505050"
     inkscape:document-units="px" /><defs
     id="defs1" /><g
     inkscape:label="Layer 1"
     inkscape:groupmode="layer"
     id="layer1"><path
       style="fill:#f9f9f9;stroke-width:1.34487"
       d="M 12.105632,28.655724 C 5.9272117,23.943235 2.3420057,18.962216 1.1085783,13.377236 0.33069026,9.8549436 0.60570695,7.6757799 2.2088871,4.6586633 4.6397951,0.08379878 10.8337,-0.89466718 14.453244,2.7243927 l 1.693532,1.6933045 1.43173,-1.4540267 c 2.91452,-2.95990971 7.855028,-3.22253838 10.69025,-0.568275 5.936535,5.557631 3.582989,16.5851185 -5.11906,23.9852545 -2.956789,2.514423 -6.583868,5.263176 -6.944949,5.263176 -0.09983,0 -1.944423,-1.344646 -4.099115,-2.988102 z m 8.341379,-1.603155 C 24.902385,23.456913 27.348097,20.40689 29.184516,16.156112 31.263719,11.34336 30.860724,6.6284979 28.131992,3.8420561 26.808066,2.4901294 25.445503,1.9780765 23.171977,1.9780765 c -2.357552,0 -4.0767,0.9337074 -5.6166,3.0504997 -1.397236,1.9206818 -1.688024,1.92955 -2.632447,0.080282 C 13.322265,1.9746056 8.1330903,0.90588776 5.3092301,3.1289029 3.1862494,4.800168 2.1513836,6.6651899 1.8966798,9.2789588 1.2914372,15.489949 6.2149475,23.304006 14.157675,28.738269 c 1.094439,0.748794 2.105032,1.363622 2.24576,1.366283 0.140729,0.0027 1.960339,-1.370731 4.043576,-3.051983 z"
       id="path1" /></g></svg>
