<?xml version="1.0" encoding="UTF-8" standalone="no"?>
<!-- Created with Inkscape (http://www.inkscape.org/) -->

<svg
   width="32"
   height="32"
   viewBox="0 0 32 32"
   version="1.1"
   id="svg1"
   xml:space="preserve"
   sodipodi:docname="icon.svg"
   xmlns:inkscape="http://www.inkscape.org/namespaces/inkscape"
   xmlns:sodipodi="http://sodipodi.sourceforge.net/DTD/sodipodi-0.dtd"
   xmlns="http://www.w3.org/2000/svg"
   xmlns:svg="http://www.w3.org/2000/svg"><sodipodi:namedview
     id="namedview1"
     pagecolor="#505050"
     bordercolor="#eeeeee"
     borderopacity="1"
     inkscape:showpageshadow="0"
     inkscape:pageopacity="0"
     inkscape:pagecheckerboard="0"
     inkscape:deskcolor="#505050"
     inkscape:document-units="px" /><defs
     id="defs1" /><g
     inkscape:label="Layer 1"
     inkscape:groupmode="layer"
     id="layer1"><path
       style="fill:#f9f9f9;stroke-width:1.15314"
       d="m 14.434066,31.553418 c -3.192366,-1.148684 -1.855159,-5.780537 1.668829,-5.780537 1.436584,0 3.416565,1.759121 3.416565,3.03546 0,2.085968 -2.766667,3.579405 -5.085394,2.745077 z m 3.122472,-2.45067 c 0.210345,-1.303848 -1.111295,-2.227912 -2.354124,-1.645955 -0.864758,0.404925 -1.203031,2.028695 -0.542945,2.60623 0.185149,0.161994 0.876064,0.239495 1.535366,0.172224 0.861658,-0.08792 1.244558,-0.406368 1.361703,-1.132499 z m 8.904654,2.032753 c -1.626921,-1.11969 -1.940873,-2.179075 -1.078289,-3.638519 1.146164,-1.939244 3.133356,-2.272351 5.17473,-0.867424 1.627199,1.119881 1.663178,2.948197 0.08519,4.328843 -1.410212,1.233848 -2.574512,1.283157 -4.181625,0.1771 z m 3.394841,-1.549912 c 0.628904,-1.028156 -0.205282,-2.159354 -1.592386,-2.159354 -1.395206,0 -1.834542,0.56789 -1.457143,1.883516 0.351092,1.223918 2.358538,1.405497 3.049529,0.275838 z M 12.576924,23.311037 C 10.397744,22.14848 9.9138547,21.258329 7.9617108,14.820998 6.9968084,11.639166 5.960583,8.8984779 5.6589876,8.730583 5.3573922,8.5626869 3.9768229,8.4224696 2.5910558,8.4189882 0.78812081,8.4144584 0.12726048,8.2657018 0.26759521,7.8959854 0.40748675,7.5274363 2.174079,7.3461818 6.4296459,7.2637508 L 12.395581,7.1481895 12.692699,5.7624844 c 0.670242,-3.1258923 3.919466,-5.61659776 7.327069,-5.61659776 3.380342,0 6.828978,2.52573056 7.351371,5.38403776 0.279828,1.5310946 0.376478,1.6053866 2.243734,1.7247018 l 1.951312,0.1246859 0.127887,8.3701069 0.127886,8.370107 -8.867668,-0.0016 c -7.956231,-0.0013 -9.022837,-0.08433 -10.377366,-0.806945 z M 30.148923,15.646085 V 8.6193283 L 28.90443,8.4931534 C 27.914151,8.3927468 27.448964,8.6656488 26.627126,9.8291088 23.495223,14.262878 16.744398,14.404437 13.639765,10.101442 12.513186,8.5400132 12.26353,8.4126588 10.329212,8.4126588 c -1.1506452,0 -2.1976214,0.1494069 -2.3266113,0.3320147 -0.4372231,0.6189676 3.5425333,11.8410575 4.5285133,12.7694695 1.286116,1.211025 1.797782,1.271199 10.295289,1.21077 l 7.32252,-0.05207 z"
       id="path1" /></g></svg>
